<svg xmlns="http://www.w3.org/2000/svg" width="313" height="45" fill="#0e153a" xmlns:v="https://vecta.io/nano"><path d="M33.657 12.656c0 5.217-2.903 7.893-6.033 9.526 4.99 1.678 8.437 4.536 8.437 10.388 0 7.666-6.26 11.703-15.695 11.703H.633V1.814h19.052c8.528 0 13.972 4.173 13.972 10.842zm-7.485 1.225c0-3.448-2.676-5.443-7.485-5.443H7.981v11.295h10.161c4.808 0 8.029-1.905 8.029-5.852zm2.359 17.918c0-3.629-2.858-5.761-8.71-5.761H7.981v11.658h12.384c5.081-.045 8.165-2.041 8.165-5.897zm12.43 12.475V0h7.349v44.274h-7.349zm33.524 0v-3.947c-2.177 2.631-5.534 4.627-10.388 4.627-6.079 0-11.386-3.447-11.386-9.889v-.136c0-6.895 5.534-10.297 12.974-10.297a26.7 26.7 0 0 1 8.846 1.361v-.771c0-4.446-2.812-6.85-7.893-6.85-3.175 0-6.26.68-9.163 1.996l-1.996-5.897a27.66 27.66 0 0 1 12.202-2.676c9.481 0 14.062 4.99 14.062 13.518v18.961h-7.258zm.136-13.609c-2.359-.862-4.854-1.27-7.349-1.27-4.627 0-7.349 1.86-7.349 5.171v.136c0 3.039 2.722 4.718 6.169 4.718 4.854 0 8.483-2.722 8.483-6.759l.045-1.996zM102.245 45c-9.027.091-16.421-7.122-16.558-16.149v-.454c0-9.163 7.031-16.784 16.603-16.784 6.079 0 9.844 2.268 12.792 5.534l-4.536 4.899c-2.223-2.359-4.627-4.037-8.301-4.037-5.353 0-9.209 4.627-9.209 10.252 0 5.761 3.947 10.388 9.572 10.388 3.447 0 6.033-1.633 8.301-4.037l4.445 4.355C112.179 42.505 108.505 45 102.245 45zm46.767-.726h-8.483l-9.662-13.835-4.491 4.672v9.163h-7.349V0h7.349v26.446l13.291-14.198h8.937l-12.747 13.019 13.155 19.007zm22.139.68c-5.262 0-8.619-2.676-10.887-5.67v4.99h-7.303V0h7.349v17.601c2.358-3.357 5.715-6.033 10.887-6.033 7.575 0 14.924 6.033 14.924 16.693s-7.349 16.693-14.97 16.693zm-1.678-26.991c-4.99 0-9.39 4.083-9.39 10.343s4.355 10.297 9.39 10.297 9.163-3.947 9.163-10.297-4.219-10.343-9.163-10.343zM205.805 45c-9.753 0-16.965-7.485-16.965-16.603s7.258-16.784 17.101-16.784 17.057 7.439 17.057 16.693S215.694 45 205.805 45zm0-26.99c-5.897 0-9.662 4.627-9.662 10.252s4.037 10.388 9.753 10.388c5.942 0 9.708-4.627 9.708-10.252s-4.083-10.388-9.799-10.388zm41.192 26.264v-3.947c-2.178 2.631-5.535 4.627-10.388 4.627-6.034 0-11.386-3.447-11.386-9.889v-.136c0-6.895 5.534-10.297 12.973-10.297 2.994-.045 5.988.408 8.846 1.361v-.771c0-4.446-2.813-6.85-7.893-6.85a21.92 21.92 0 0 0-9.163 1.996l-1.996-5.897a27.66 27.66 0 0 1 12.202-2.676c9.481 0 14.062 4.99 14.062 13.518v18.961h-7.257zm.181-13.609c-2.359-.862-4.854-1.27-7.349-1.27-4.627 0-7.348 1.86-7.348 5.171v.136c0 3.039 2.721 4.718 6.169 4.718 4.854 0 8.483-2.722 8.483-6.759l.045-1.996zm20.139 13.609h-7.348V12.248h7.348v7.213c1.996-4.808 5.716-8.029 11.341-7.848v7.848h-.454c-6.441 0-10.932 4.173-10.932 12.656l.045 12.157zm37.924 0v-5.353c-2.359 3.357-5.716 6.033-10.932 6.033-7.531 0-14.879-6.033-14.879-16.693s7.167-16.693 14.833-16.693c5.262 0 8.619 2.676 10.932 5.625V0h7.349v44.274h-7.303zm-9.209-26.31c-5.035 0-9.208 3.901-9.208 10.343 0 6.305 4.264 10.297 9.208 10.297s9.3-4.083 9.3-10.297-4.355-10.343-9.3-10.343z"/></svg>