<svg xmlns="http://www.w3.org/2000/svg" width="177" height="45" fill="none" xmlns:v="https://vecta.io/nano"><path d="M41.891 44.228V28.771c0-3.231-1.333-4.846-3.998-4.847s-4.001 1.615-4.006 4.847v15.457h-7.874V28.771c0-3.231-1.312-4.846-3.936-4.847-2.67 0-4.002 1.616-3.998 4.847v15.457h-7.876V27.858c0-3.372 1.171-5.925 3.512-7.657 2.062-1.547 4.849-2.32 8.361-2.32 3.561 0 6.184.913 7.87 2.74 1.452-1.827 4.1-2.74 7.941-2.74 3.512 0 6.298.773 8.358 2.32 2.342 1.731 3.513 4.284 3.514 7.657v16.369h-7.868zm96.443-.071V0h7.876v44.156h-7.876zm-10.037 0v-2.601c-.703.937-1.898 1.687-3.585 2.25-1.378.492-2.827.754-4.29.772-3.751 0-6.762-1.289-9.035-3.868s-3.41-5.767-3.411-9.566c0-3.748 1.108-6.896 3.341-9.423 1.977-2.234 5.19-3.796 8.893-3.796 4.172 0 6.608 1.571 8.087 3.374V0h7.664v44.156h-7.664zm0-14.694c0-1.407-.666-2.755-1.999-4.045s-2.703-1.935-4.112-1.935c-2.014 0-3.607.821-4.78 2.461-1.033 1.456-1.548 3.238-1.548 5.344 0 2.064.516 3.822 1.548 5.274 1.171 1.69 2.764 2.533 4.78 2.531 1.22 0 2.544-.575 3.974-1.723s2.143-2.332 2.141-3.549l-.004-4.359zM93.142 44.859c-3.985 0-7.278-1.265-9.879-3.796s-3.903-5.789-3.909-9.774c0-3.982 1.301-7.239 3.903-9.773s5.895-3.799 9.879-3.797 7.288 1.265 9.914 3.797 3.939 5.788 3.938 9.773-1.313 7.244-3.938 9.775-5.928 3.795-9.909 3.796zm0-20.812c-1.898 0-3.357.719-4.376 2.156s-1.529 3.145-1.529 5.123.476 3.65 1.428 5.016c1.091 1.555 2.585 2.332 4.483 2.33s3.392-.779 4.482-2.33c.996-1.365 1.493-3.037 1.493-5.016s-.476-3.651-1.428-5.016c-1.091-1.51-2.608-2.264-4.553-2.263zM64.666 44.859c-3.984 0-7.278-1.265-9.88-3.796s-3.903-5.789-3.902-9.774 1.301-7.239 3.902-9.773 5.895-3.799 9.88-3.797 7.286 1.265 9.914 3.797 3.94 5.788 3.936 9.773-1.312 7.244-3.936 9.775-5.929 3.795-9.914 3.796zm0-20.812c-1.898 0-3.357.719-4.378 2.156s-1.53 3.145-1.529 5.123.476 3.65 1.428 5.016c1.091 1.555 2.586 2.332 4.485 2.33s3.393-.779 4.482-2.33c.994-1.365 1.491-3.037 1.491-5.016s-.476-3.651-1.428-5.016c-1.089-1.51-2.606-2.264-4.55-2.263zm90.87 9.633c.168 1.875 2.605 5.907 6.612 5.907 3.899 0 5.744-2.252 5.835-3.164l8.297-.071c-.906 2.768-4.583 8.649-14.278 8.649-4.032 0-7.721-1.255-10.371-3.762s-3.972-5.775-3.972-9.809c0-4.172 1.324-7.488 3.972-9.949s6.082-3.691 10.303-3.691c4.592 0 8.178 1.523 10.756 4.569 2.392 2.811 3.588 6.584 3.587 11.319l-20.741.001zm12.868-4.854c-.328-1.689-1.032-3.068-2.109-4.149-1.22-1.171-2.626-1.757-4.219-1.758-1.642 0-3.013.563-4.114 1.688s-1.839 2.532-2.213 4.219h12.655z" fill="#0e153a"/><path d="M25.492 16.69l7.816-5.711-.1-.348C19.104 12.36 12.69 13.585.543 20.627l.113.32.965.01c-.089.972-.243 3.375-.046 6.989-1.348 3.901-.034 6.551 1.199 9.433.196-2.998.176-6.282-.745-9.55-.193-3.589-.034-5.949.053-6.867l8.053.077a36.83 36.83 0 0 0 .239 4.72c7.196 2.529 14.433-.008 18.275-6.242-1.066-1.195-3.157-2.825-3.157-2.825z" fill="#3d5af1"/></svg>