<svg width="225" height="45" viewBox="0 0 225 45" fill="none" xmlns="http://www.w3.org/2000/svg">
<mask id="mask0_8389_2347" style="mask-type:luminance" maskUnits="userSpaceOnUse" x="0" y="32" width="224" height="13">
<mask id="mask1_8389_2347" style="mask-type:luminance" maskUnits="userSpaceOnUse" x="0" y="0" width="225" height="45">
<path d="M224.286 0H0.332031V45H224.286V0Z" fill="white"/>
</mask>
<g mask="url(#mask1_8389_2347)">
<path d="M6.98727 41.86L5.94076 39.0449H2.42448L1.37797 41.86H0.457031L3.70122 33.0274H4.63262L7.87681 41.86H6.98727ZM4.21402 33.9484C4.21402 33.9484 4.02564 34.6809 3.87913 35.0891L2.66517 38.2705H5.70006L4.5175 35.1309C4.37099 34.7123 4.18261 33.9902 4.18261 33.9902L4.21402 33.9484ZM8.58843 41.0961L9.0489 40.4786C9.55393 40.968 10.2294 41.2419 10.9326 41.2426C11.6129 41.2426 12.1989 40.9077 12.1989 40.1961C12.1989 38.8147 8.79773 39.1495 8.79773 37.0565C8.79773 35.9263 9.84424 35.3089 10.9535 35.3089C11.3077 35.2883 11.6623 35.3388 11.9966 35.4574C12.3309 35.576 12.6381 35.7604 12.9001 35.9995L12.5128 36.6484C12.0809 36.2585 11.5141 36.0521 10.9326 36.0728C10.2943 36.0728 9.6768 36.3449 9.6768 37.0565C9.6768 38.4484 13.078 38.103 13.078 40.1961C13.0601 40.4566 12.9892 40.7108 12.8695 40.9429C12.7498 41.1751 12.5839 41.3803 12.382 41.5459C12.1801 41.7116 11.9464 41.8342 11.6954 41.9062C11.4443 41.9782 11.1812 41.9981 10.9221 41.9647C10.4913 41.975 10.0629 41.8987 9.66201 41.7406C9.26117 41.5824 8.89611 41.3454 8.58843 41.0437V41.0961ZM14.1559 41.0961L14.6163 40.4786C15.1214 40.968 15.7968 41.2419 16.5001 41.2426C17.1803 41.2426 17.7663 40.9077 17.7663 40.1961C17.7663 38.8147 14.3652 39.1495 14.3652 37.0565C14.3652 35.9263 15.4117 35.3089 16.521 35.3089C16.8751 35.2883 17.2298 35.3388 17.5641 35.4574C17.8984 35.576 18.2056 35.7604 18.4675 35.9995L18.0803 36.6484C17.6483 36.2585 17.0816 36.0521 16.5001 36.0728C15.8617 36.0728 15.2442 36.3449 15.2442 37.0565C15.2442 38.4484 18.6454 38.103 18.6454 40.1961C18.6276 40.4566 18.5566 40.7108 18.437 40.9429C18.3173 41.1751 18.1514 41.3803 17.9494 41.5459C17.7475 41.7116 17.5139 41.8342 17.2628 41.9062C17.0118 41.9782 16.7486 41.9981 16.4896 41.9647C16.0588 41.975 15.6303 41.8987 15.2295 41.7406C14.8286 41.5824 14.4636 41.3454 14.1559 41.0437V41.0961ZM19.7966 38.71C19.7723 38.283 19.8356 37.8555 19.9825 37.4538C20.1294 37.0522 20.3568 36.6847 20.6508 36.3741C20.9448 36.0634 21.2991 35.8161 21.6921 35.6474C22.0851 35.4786 22.5084 35.3919 22.9361 35.3926C23.3066 35.3906 23.6733 35.4667 24.0124 35.6159C24.3515 35.7651 24.6553 35.9841 24.9041 36.2586C25.1529 36.5331 25.3411 36.8569 25.4564 37.2089C25.5717 37.561 25.6115 37.9334 25.5733 38.3019C25.5733 38.4484 25.5733 38.7414 25.5733 38.7414H20.728C20.7104 39.0701 20.7613 39.3987 20.8775 39.7067C20.9936 40.0146 21.1725 40.295 21.4027 40.5302C21.6329 40.7653 21.9095 40.9501 22.2149 41.0727C22.5203 41.1954 22.8479 41.2532 23.1768 41.2426C23.8901 41.2299 24.5744 40.9584 25.1024 40.4786L25.4896 41.1275C24.8403 41.6876 24.0133 41.9991 23.1559 42.0065C22.7173 42.0227 22.28 41.9482 21.8715 41.7877C21.463 41.6272 21.092 41.3842 20.7816 41.0738C20.4713 40.7635 20.2283 40.3924 20.0678 39.9839C19.9073 39.5754 19.8328 39.1382 19.8489 38.6996L19.7966 38.71ZM20.7175 38.0402H24.6838C24.7058 37.792 24.6754 37.5419 24.5946 37.3061C24.5138 37.0703 24.3843 36.8542 24.2146 36.6717C24.0449 36.4891 23.8387 36.3443 23.6095 36.2465C23.3802 36.1488 23.133 36.1003 22.8838 36.1042C22.3406 36.0809 21.8096 36.27 21.4033 36.6314C20.997 36.9927 20.7473 37.498 20.707 38.0402H20.7175ZM26.6722 41.0961L27.1326 40.4786C27.6376 40.968 28.3131 41.2419 29.0163 41.2426C29.6966 41.2426 30.2826 40.9077 30.2826 40.1961C30.2826 38.8147 26.8815 39.1495 26.8815 37.0565C26.8815 35.9263 27.928 35.3089 29.0373 35.3089C29.3914 35.2883 29.7461 35.3388 30.0804 35.4574C30.4147 35.576 30.7218 35.7604 30.9838 35.9995L30.5966 36.6484C30.1646 36.2585 29.5979 36.0521 29.0163 36.0728C28.378 36.0728 27.7605 36.3449 27.7605 37.0565C27.7605 38.4484 31.1617 38.103 31.1617 40.1961C31.1439 40.4566 31.0729 40.7108 30.9532 40.9429C30.8335 41.1751 30.6676 41.3803 30.4657 41.5459C30.2638 41.7116 30.0301 41.8342 29.7791 41.9062C29.528 41.9782 29.2649 41.9981 29.0059 41.9647C28.575 41.9755 28.1463 41.8996 27.7454 41.7414C27.3445 41.5832 26.9795 41.3459 26.6722 41.0437V41.0961ZM32.2396 41.0961L32.7001 40.4786C33.2051 40.968 33.8805 41.2419 34.5838 41.2426C35.264 41.2426 35.8501 40.9077 35.8501 40.1961C35.8501 38.8147 32.4489 39.1495 32.4489 37.0565C32.4489 35.9263 33.4954 35.3089 34.6047 35.3089C34.9588 35.2883 35.3135 35.3388 35.6478 35.4574C35.9821 35.576 36.2893 35.7604 36.5512 35.9995L36.164 36.6484C35.7321 36.2585 35.1653 36.0521 34.5838 36.0728C33.9454 36.0728 33.328 36.3449 33.328 37.0565C33.328 38.4484 36.7291 38.103 36.7291 40.1961C36.7113 40.4566 36.6404 40.7108 36.5207 40.9429C36.401 41.1751 36.2351 41.3803 36.0332 41.5459C35.8312 41.7116 35.5976 41.8342 35.3465 41.9062C35.0955 41.9782 34.8323 41.9981 34.5733 41.9647C34.1424 41.9755 33.7138 41.8996 33.3128 41.7414C32.9119 41.5832 32.5469 41.3459 32.2396 41.0437V41.0961ZM38.3198 41.86V35.5809H39.157V36.5228C39.157 36.7949 39.157 37.0251 39.157 37.0251C39.3462 36.5701 39.6614 36.1786 40.0656 35.8968C40.4698 35.615 40.9461 35.4546 41.4384 35.4344C41.6714 35.4054 41.9078 35.4236 42.1336 35.488C42.3594 35.5523 42.5698 35.6615 42.7525 35.809C42.9351 35.9565 43.0862 36.1392 43.1967 36.3464C43.3071 36.5535 43.3747 36.7808 43.3954 37.0146C43.5868 36.5537 43.9086 36.1587 44.3213 35.878C44.734 35.5973 45.2196 35.4431 45.7187 35.4344C47.2466 35.4344 47.8117 36.324 47.8117 37.8833V41.9019H46.9536V38.0612C46.9536 37.0146 46.7443 36.1775 45.5826 36.1775C45.1029 36.221 44.6498 36.4173 44.29 36.7376C43.9302 37.0578 43.6826 37.4851 43.5838 37.9565C43.4979 38.2557 43.4591 38.5664 43.4687 38.8774V41.8705H42.6105V38.0612C42.6105 37.1088 42.4745 36.1775 41.2815 36.1775C40.7774 36.2179 40.3003 36.4216 39.9225 36.7578C39.5448 37.094 39.287 37.5443 39.1884 38.0402C39.1286 38.3152 39.1005 38.5961 39.1047 38.8774V41.8705L38.3198 41.86ZM49.3815 38.7205C49.3572 38.2935 49.4205 37.866 49.5674 37.4643C49.7143 37.0626 49.9417 36.6952 50.2357 36.3846C50.5296 36.0739 50.884 35.8266 51.277 35.6578C51.67 35.4891 52.0933 35.4024 52.521 35.403C52.8914 35.4011 53.2582 35.4771 53.5972 35.6263C53.9363 35.7756 54.2402 35.9945 54.489 36.269C54.7378 36.5435 54.926 36.8673 55.0413 37.2194C55.1566 37.5715 55.1964 37.9439 55.1582 38.3123C55.1582 38.4589 55.1582 38.7519 55.1582 38.7519H50.3128C50.2953 39.0805 50.3462 39.4092 50.4623 39.7171C50.5785 40.025 50.7574 40.3055 50.9876 40.5406C51.2178 40.7758 51.4944 40.9605 51.7998 41.0832C52.1052 41.2058 52.4328 41.2637 52.7617 41.253C53.475 41.2404 54.1593 40.9689 54.6873 40.4891L55.0745 41.1379C54.4252 41.698 53.5982 42.0095 52.7408 42.017C52.3021 42.0331 51.8649 41.9586 51.4564 41.7981C51.0479 41.6376 50.6769 41.3946 50.3665 41.0843C50.0561 40.7739 49.8131 40.4029 49.6526 39.9944C49.4922 39.5859 49.4177 39.1486 49.4338 38.71L49.3815 38.7205ZM50.3024 38.0507H54.2687C54.2907 37.8025 54.2603 37.5523 54.1795 37.3166C54.0987 37.0808 53.9692 36.8647 53.7995 36.6821C53.6298 36.4996 53.4236 36.3548 53.1944 36.257C52.9651 36.1593 52.7179 36.1108 52.4687 36.1147C51.9254 36.0914 51.3945 36.2805 50.9882 36.6418C50.5819 37.0032 50.3322 37.5085 50.2919 38.0507H50.3024ZM56.7698 41.8705V35.5914H57.607V36.5333C57.607 36.8054 57.607 37.0356 57.607 37.0356C57.8236 36.5512 58.1787 36.1418 58.6275 35.8587C59.0762 35.5757 59.5987 35.4317 60.1291 35.4449C61.6884 35.4449 62.2222 36.3344 62.2222 37.8937V41.9123H61.364V38.1239C61.364 37.1298 61.2175 36.2507 59.9931 36.2507C59.4673 36.2536 58.9571 36.4294 58.541 36.7509C58.125 37.0723 57.8262 37.5217 57.6908 38.0298C57.6165 38.3096 57.5813 38.5984 57.5861 38.8879V41.9123L56.7698 41.8705ZM64.4512 39.5681V36.3449H63.6245V35.6333H64.4617V33.8123H65.2989V35.6333H66.8791V36.3449H65.2989V39.4844C65.2989 40.9705 66.2408 41.1589 66.7222 41.1589C66.8196 41.1687 66.9177 41.1687 67.0152 41.1589V41.9228C66.8933 41.9327 66.7708 41.9327 66.6489 41.9228C66.3429 41.9404 66.0368 41.8906 65.7522 41.7769C65.4675 41.6632 65.2114 41.4883 65.0018 41.2647C64.7922 41.0411 64.6342 40.7742 64.539 40.4829C64.4439 40.1915 64.4139 39.8828 64.4512 39.5786V39.5681ZM74.0373 41.8705V33.8228H70.8977V33.0379H78.1082V33.8123H74.9687V41.86L74.0373 41.8705ZM77.5326 38.7309C77.5326 38.0707 77.7284 37.4252 78.0952 36.8762C78.4621 36.3272 78.9834 35.8994 79.5934 35.6467C80.2034 35.394 80.8747 35.3279 81.5223 35.4567C82.1699 35.5855 82.7647 35.9035 83.2316 36.3704C83.6985 36.8372 84.0164 37.4321 84.1452 38.0797C84.274 38.7272 84.2079 39.3985 83.9552 40.0085C83.7026 40.6185 83.2747 41.1399 82.7257 41.5067C82.1767 41.8735 81.5313 42.0693 80.871 42.0693C80.4298 42.0793 79.9912 41.9998 79.5817 41.8356C79.1721 41.6714 78.8001 41.4258 78.4881 41.1138C78.1761 40.8018 77.9305 40.4298 77.7663 40.0202C77.6021 39.6107 77.5226 39.1721 77.5326 38.7309ZM78.4117 38.7309C78.4117 39.3832 78.6708 40.0087 79.132 40.4699C79.5932 40.9312 80.2187 41.1903 80.871 41.1903C81.5232 41.1903 82.1488 40.9312 82.61 40.4699C83.0712 40.0087 83.3303 39.3832 83.3303 38.7309C83.3303 38.0787 83.0712 37.4532 82.61 36.9919C82.1488 36.5307 81.5232 36.2716 80.871 36.2716C80.2187 36.2716 79.5932 36.5307 79.132 36.9919C78.6708 37.4532 78.4117 38.0787 78.4117 38.7309ZM85.3396 38.7309C85.3396 38.0707 85.5354 37.4252 85.9022 36.8762C86.269 36.3272 86.7904 35.8994 87.4004 35.6467C88.0104 35.394 88.6817 35.3279 89.3292 35.4567C89.9768 35.5855 90.5717 35.9035 91.0385 36.3704C91.5054 36.8372 91.8234 37.4321 91.9522 38.0797C92.081 38.7272 92.0149 39.3985 91.7622 40.0085C91.5096 40.6185 91.0817 41.1399 90.5327 41.5067C89.9837 41.8735 89.3383 42.0693 88.678 42.0693C88.2368 42.0793 87.7982 41.9998 87.3887 41.8356C86.9791 41.6714 86.6071 41.4258 86.2951 41.1138C85.9831 40.8018 85.7375 40.4298 85.5733 40.0202C85.4091 39.6107 85.3296 39.1721 85.3396 38.7309ZM86.2187 38.7309C86.2187 39.3832 86.4778 40.0087 86.939 40.4699C87.4002 40.9312 88.0257 41.1903 88.678 41.1903C89.3302 41.1903 89.9557 40.9312 90.417 40.4699C90.8782 40.0087 91.1373 39.3832 91.1373 38.7309C91.1373 38.0787 90.8782 37.4532 90.417 36.9919C89.9557 36.5307 89.3302 36.2716 88.678 36.2716C88.0257 36.2716 87.4002 36.5307 86.939 36.9919C86.4778 37.4532 86.2187 38.0787 86.2187 38.7309ZM93.5443 40.4263V33.1007H94.4024V40.2484C94.4024 41.0751 94.7791 41.2007 95.1035 41.2007H95.3129V41.9647C95.2083 41.9723 95.1034 41.9723 94.9989 41.9647C94.4756 41.9647 93.5443 41.7972 93.5443 40.4158V40.4263ZM96.1919 41.1589L96.6524 40.5414C97.1574 41.0308 97.8329 41.3047 98.5361 41.3054C99.2163 41.3054 99.8024 40.9705 99.8024 40.2588C99.8024 38.8774 96.4012 39.2123 96.4012 37.1193C96.4012 35.9891 97.4477 35.3717 98.557 35.3717C98.9111 35.3511 99.2658 35.4016 99.6001 35.5202C99.9344 35.6388 100.242 35.8232 100.504 36.0624L100.116 36.7112C99.6844 36.3213 99.1176 36.1149 98.5361 36.1356C97.8977 36.1356 97.2803 36.4077 97.2803 37.1193C97.2803 38.5112 100.681 38.1658 100.681 40.2588C100.664 40.5194 100.593 40.7736 100.473 41.0057C100.353 41.2379 100.187 41.4431 99.9855 41.6087C99.7836 41.7744 99.5499 41.897 99.2989 41.969C99.0478 42.041 98.7847 42.0609 98.5256 42.0274C98.0948 42.0383 97.6661 41.9624 97.2652 41.8042C96.8642 41.646 96.4993 41.4087 96.1919 41.1065V41.1589ZM105.935 41.9228V36.3972H105.14V35.6856H105.935V35.3821C105.898 35.0788 105.928 34.7711 106.022 34.4805C106.117 34.19 106.274 33.9236 106.482 33.7002C106.691 33.4768 106.945 33.3017 107.229 33.1873C107.512 33.0729 107.817 33.0219 108.122 33.0379C108.251 33.0284 108.38 33.0284 108.509 33.0379V33.8019C108.408 33.7928 108.307 33.7928 108.206 33.8019C107.714 33.8019 106.783 33.9798 106.783 35.3821V35.6856H108.405V36.3972H106.783V41.9228H105.935ZM109.148 38.7833C109.148 38.123 109.344 37.4776 109.71 36.9286C110.077 36.3796 110.599 35.9517 111.209 35.699C111.819 35.4463 112.49 35.3802 113.137 35.509C113.785 35.6379 114.38 35.9558 114.847 36.4227C115.314 36.8896 115.632 37.4844 115.76 38.132C115.889 38.7796 115.823 39.4508 115.57 40.0608C115.318 40.6708 114.89 41.1922 114.341 41.559C113.792 41.9259 113.146 42.1216 112.486 42.1216C112.045 42.1316 111.606 42.0521 111.197 41.8879C110.787 41.7237 110.415 41.4782 110.103 41.1661C109.791 40.8541 109.546 40.4821 109.381 40.0726C109.217 39.663 109.138 39.2244 109.148 38.7833ZM110.027 38.7833C110.027 39.4355 110.286 40.0611 110.747 40.5223C111.208 40.9835 111.834 41.2426 112.486 41.2426C113.138 41.2426 113.764 40.9835 114.225 40.5223C114.686 40.0611 114.945 39.4355 114.945 38.7833C114.945 38.131 114.686 37.5055 114.225 37.0443C113.764 36.5831 113.138 36.324 112.486 36.324C111.834 36.324 111.208 36.5831 110.747 37.0443C110.286 37.5055 110.027 38.131 110.027 38.7833ZM117.426 41.9228V35.6437H118.263V36.7635C118.263 37.0356 118.263 37.2658 118.263 37.2658C118.365 36.8048 118.617 36.3902 118.978 36.0858C119.339 35.7814 119.79 35.604 120.262 35.5809C120.373 35.57 120.485 35.57 120.597 35.5809V36.4182C120.492 36.4105 120.387 36.4105 120.283 36.4182C119.84 36.4515 119.422 36.6294 119.091 36.9245C118.76 37.2195 118.535 37.6153 118.451 38.0507C118.331 38.4511 118.271 38.8674 118.273 39.2856V41.9437L117.426 41.9228ZM125.526 41.9228V33.0379H126.394V41.0856H130.486V41.86L125.526 41.9228ZM131.344 38.7833C131.32 38.3562 131.383 37.9288 131.53 37.5271C131.677 37.1254 131.904 36.758 132.198 36.4474C132.492 36.1367 132.847 35.8894 133.24 35.7206C133.633 35.5518 134.056 35.4651 134.484 35.4658C134.854 35.4639 135.221 35.54 135.56 35.6892C135.899 35.8384 136.203 36.0573 136.452 36.3318C136.701 36.6063 136.889 36.9301 137.004 37.2822C137.119 37.6342 137.159 38.0066 137.121 38.3751C137.121 38.5216 137.121 38.8147 137.121 38.8147H132.192C132.174 39.1433 132.225 39.472 132.341 39.7799C132.458 40.0878 132.636 40.3683 132.867 40.6034C133.097 40.8386 133.373 41.0233 133.679 41.146C133.984 41.2686 134.312 41.3264 134.641 41.3158C135.354 41.3032 136.038 41.0317 136.566 40.5519L136.954 41.2007C136.304 41.7608 135.477 42.0723 134.62 42.0798C134.181 42.0959 133.744 42.0214 133.335 41.8609C132.927 41.7004 132.556 41.4574 132.246 41.1471C131.935 40.8367 131.692 40.4657 131.532 40.0572C131.371 39.6486 131.297 39.2114 131.313 38.7728L131.344 38.7833ZM132.265 38.1135H136.231C136.253 37.8652 136.223 37.6151 136.142 37.3794C136.061 37.1436 135.932 36.9274 135.762 36.7449C135.593 36.5624 135.386 36.4176 135.157 36.3198C134.928 36.222 134.681 36.1735 134.431 36.1775C133.888 36.1542 133.357 36.3433 132.951 36.7046C132.545 37.066 132.295 37.5713 132.255 38.1135H132.265ZM138.22 40.2065C138.22 38.1135 140.993 38.0193 142.092 38.0193H142.448V37.8519C142.481 37.6353 142.465 37.4138 142.399 37.2047C142.333 36.9957 142.219 36.8047 142.067 36.6467C141.915 36.4887 141.729 36.3679 141.523 36.2937C141.316 36.2196 141.096 36.1942 140.878 36.2193C140.236 36.2311 139.614 36.4433 139.099 36.8263L138.701 36.1775C139.351 35.6964 140.143 35.4459 140.951 35.4658C141.276 35.4313 141.604 35.4709 141.911 35.5817C142.218 35.6924 142.496 35.8715 142.724 36.1052C142.951 36.339 143.123 36.6215 143.226 36.9313C143.328 37.2411 143.359 37.5702 143.316 37.8937V41.9333H142.5V41.2426C142.491 41.0683 142.491 40.8936 142.5 40.7193C142.323 41.1269 142.03 41.4738 141.658 41.7173C141.286 41.9609 140.852 42.0905 140.407 42.0902C140.142 42.1161 139.874 42.0874 139.62 42.006C139.366 41.9245 139.131 41.792 138.93 41.6166C138.729 41.4412 138.566 41.2265 138.451 40.9859C138.336 40.7452 138.272 40.4835 138.262 40.217L138.22 40.2065ZM139.099 40.2065C139.106 40.3792 139.149 40.5484 139.225 40.7037C139.301 40.859 139.408 40.997 139.54 41.1089C139.671 41.2209 139.825 41.3045 139.99 41.3545C140.156 41.4045 140.33 41.4199 140.501 41.3995C141.064 41.3336 141.579 41.053 141.94 40.6162C142.301 40.1795 142.479 39.6203 142.437 39.0554V38.7833H142.071C141.077 38.7833 139.099 38.7833 139.099 40.217V40.2065ZM145.263 41.9751V35.6961H146.1V36.8158C146.1 37.0879 146.1 37.3181 146.1 37.3181C146.203 36.8571 146.454 36.4426 146.815 36.1382C147.176 35.8338 147.627 35.6564 148.099 35.6333C148.21 35.6223 148.322 35.6223 148.434 35.6333V36.4705C148.329 36.4628 148.224 36.4628 148.12 36.4705C147.678 36.5038 147.259 36.6818 146.928 36.9768C146.597 37.2719 146.372 37.6676 146.288 38.103C146.168 38.5035 146.108 38.9197 146.111 39.3379V41.9961L145.263 41.9751ZM149.731 41.9751V35.6961H150.569V36.6379C150.569 36.91 150.569 37.1403 150.569 37.1403C150.785 36.6559 151.14 36.2464 151.589 35.9634C152.038 35.6803 152.56 35.5363 153.091 35.5495C154.65 35.5495 155.184 36.4391 155.184 37.9984V42.017H154.326V38.2286C154.326 37.2344 154.179 36.3554 152.955 36.3554C152.429 36.3583 151.919 36.534 151.503 36.8555C151.087 37.177 150.788 37.6264 150.652 38.1344C150.578 38.4143 150.543 38.7031 150.548 38.9926V42.017L149.731 41.9751ZM157.151 34.21V33.1635H158.041V34.21H157.151ZM157.151 41.9751V35.6961H158.009V41.9751H157.151ZM160.061 41.9751V35.6961H160.898V36.6379C160.898 36.91 160.898 37.1403 160.898 37.1403C161.114 36.6559 161.469 36.2464 161.918 35.9634C162.367 35.6803 162.889 35.5363 163.42 35.5495C164.979 35.5495 165.513 36.4391 165.513 37.9984V42.017H164.655V38.2286C164.655 37.2344 164.508 36.3554 163.284 36.3554C162.758 36.3583 162.248 36.534 161.832 36.8555C161.416 37.177 161.117 37.6264 160.981 38.1344C160.907 38.4143 160.872 38.7031 160.877 38.9926V42.017L160.061 41.9751ZM167.983 43.4089C168.51 43.6841 169.094 43.8345 169.688 43.8484C170.923 43.8484 171.897 43.2728 171.897 41.86V41.2844C171.889 41.1345 171.889 40.9843 171.897 40.8344C171.689 41.1771 171.387 41.453 171.027 41.6292C170.667 41.8054 170.264 41.8746 169.866 41.8286C168.171 41.8286 167.051 40.4891 167.051 38.5844C167.051 36.6798 168.098 35.4449 169.793 35.4449C170.207 35.391 170.627 35.4619 170.999 35.6483C171.372 35.8348 171.681 36.1283 171.886 36.4914C171.881 36.4217 171.881 36.3518 171.886 36.2821V35.5914H172.713V41.7553C172.726 42.1454 172.655 42.5338 172.504 42.8938C172.353 43.2538 172.127 43.577 171.84 43.8413C171.552 44.1057 171.211 44.3049 170.84 44.4253C170.469 44.5457 170.076 44.5845 169.688 44.5391C168.961 44.5385 168.244 44.3665 167.595 44.0368L167.92 43.3356L167.983 43.4089ZM170.076 41.1693C171.07 41.1693 171.949 40.5519 171.949 38.6996C171.949 36.8472 171.07 36.2926 169.95 36.2926C168.83 36.2926 168.004 37.1821 168.004 38.6891C168.004 40.1961 168.82 41.1798 170.097 41.1798L170.076 41.1693ZM177.82 40.9914L178.333 40.3216C178.955 40.9216 179.781 41.2653 180.645 41.2844C180.863 41.3076 181.083 41.2857 181.291 41.2201C181.499 41.1545 181.692 41.0467 181.857 40.9033C182.022 40.76 182.156 40.5841 182.25 40.3868C182.344 40.1895 182.396 39.975 182.404 39.7565C182.404 37.5379 177.998 38.103 177.998 35.3612C178.019 35.0232 178.107 34.6928 178.258 34.3894C178.408 34.086 178.618 33.8157 178.874 33.5945C179.131 33.3732 179.429 33.2053 179.751 33.1008C180.073 32.9962 180.413 32.9571 180.75 32.9856C181.619 32.9609 182.464 33.2677 183.115 33.8437L182.686 34.5763C182.15 34.1036 181.464 33.8366 180.75 33.8228C180.528 33.7982 180.303 33.8181 180.088 33.8814C179.874 33.9446 179.674 34.0499 179.501 34.1912C179.327 34.3324 179.184 34.5068 179.078 34.704C178.973 34.9013 178.908 35.1176 178.887 35.3403C178.887 37.4333 183.293 36.8367 183.293 39.7356C183.287 40.0727 183.212 40.405 183.072 40.7114C182.931 41.0179 182.729 41.2919 182.477 41.5161C182.225 41.7403 181.929 41.9099 181.609 42.0141C181.288 42.1184 180.949 42.155 180.614 42.1216C180.095 42.1298 179.579 42.0341 179.097 41.8399C178.616 41.6458 178.178 41.3573 177.809 40.9914H177.82ZM183.921 44.2356L184.245 43.5553C184.461 43.7271 184.724 43.8293 184.999 43.8484C185.554 43.8484 185.941 43.3984 186.192 42.8019L186.579 41.9123L183.942 35.6333H184.884L186.747 40.2379C186.872 40.5519 186.977 40.9077 186.977 40.9077C187.033 40.6805 187.103 40.4569 187.186 40.2379L189.007 35.6333H189.938L186.799 43.2728C186.669 43.6539 186.424 43.9854 186.098 44.2216C185.772 44.4577 185.381 44.587 184.978 44.5914C184.577 44.5877 184.189 44.4556 183.869 44.2147L183.921 44.2356ZM190.619 41.2112L191.079 40.5937C191.584 41.0831 192.26 41.3571 192.963 41.3577C193.643 41.3577 194.229 41.0228 194.229 40.3112C194.229 38.9298 190.828 39.2647 190.828 37.1717C190.828 36.0414 191.874 35.424 192.984 35.424C193.338 35.4034 193.693 35.4539 194.027 35.5725C194.361 35.6912 194.668 35.8755 194.93 36.1147L194.543 36.7635C194.111 36.3736 193.544 36.1672 192.963 36.1879C192.324 36.1879 191.707 36.46 191.707 37.1717C191.707 38.5635 195.108 38.2182 195.108 40.3112C195.09 40.5718 195.019 40.8259 194.9 41.058C194.78 41.2902 194.614 41.4954 194.412 41.661C194.21 41.8267 193.977 41.9493 193.726 42.0213C193.475 42.0933 193.211 42.1132 192.952 42.0798C192.522 42.0907 192.093 42.0147 191.692 41.8565C191.291 41.6983 190.926 41.4611 190.619 41.1589V41.2112ZM196.898 39.6833V36.46H196.071V35.7484H196.908V33.9275H197.745V35.7484H199.326V36.46H197.745V39.5995C197.745 41.0856 198.687 41.274 199.169 41.274C199.266 41.2838 199.364 41.2838 199.462 41.274V42.0379C199.34 42.0479 199.217 42.0479 199.095 42.0379C198.789 42.0555 198.483 42.0057 198.199 41.892C197.914 41.7783 197.658 41.6035 197.448 41.3799C197.239 41.1563 197.081 40.8893 196.986 40.598C196.89 40.3066 196.86 39.9979 196.898 39.6937V39.6833ZM200.424 38.8251C200.4 38.3981 200.464 37.9707 200.61 37.569C200.757 37.1673 200.985 36.7999 201.279 36.4892C201.573 36.1786 201.927 35.9313 202.32 35.7625C202.713 35.5937 203.136 35.507 203.564 35.5077C203.934 35.5057 204.301 35.5818 204.64 35.731C204.979 35.8802 205.283 36.0992 205.532 36.3737C205.781 36.6482 205.969 36.972 206.084 37.324C206.2 37.6761 206.239 38.0485 206.201 38.417C206.201 38.5635 206.201 38.8565 206.201 38.8565H201.356C201.338 39.1852 201.389 39.5139 201.505 39.8218C201.622 40.1297 201.8 40.4101 202.031 40.6453C202.261 40.8804 202.537 41.0652 202.843 41.1878C203.148 41.3105 203.476 41.3683 203.805 41.3577C204.518 41.345 205.202 41.0735 205.73 40.5937L206.118 41.2426C205.468 41.8027 204.641 42.1142 203.784 42.1216C203.345 42.1378 202.908 42.0633 202.499 41.9028C202.091 41.7423 201.72 41.4993 201.41 41.1889C201.099 40.8786 200.856 40.5075 200.696 40.099C200.535 39.6905 200.461 39.2533 200.477 38.8147L200.424 38.8251ZM201.345 38.1554H205.312C205.334 37.9071 205.303 37.657 205.223 37.4212C205.142 37.1855 205.012 36.9693 204.843 36.7868C204.673 36.6042 204.467 36.4594 204.237 36.3617C204.008 36.2639 203.761 36.2154 203.512 36.2193C202.968 36.1961 202.437 36.3852 202.031 36.7465C201.625 37.1079 201.375 37.6131 201.335 38.1554H201.345ZM207.813 41.9751V35.6961H208.65V36.6379C208.65 36.91 208.65 37.1403 208.65 37.1403C208.839 36.6852 209.154 36.2937 209.559 36.0119C209.963 35.7301 210.439 35.5697 210.931 35.5495C211.164 35.5205 211.401 35.5387 211.627 35.6031C211.852 35.6674 212.063 35.7766 212.246 35.9241C212.428 36.0716 212.579 36.2543 212.69 36.4615C212.8 36.6687 212.868 36.8959 212.888 37.1298C213.08 36.6688 213.402 36.2738 213.814 35.9931C214.227 35.7124 214.713 35.5582 215.212 35.5495C216.74 35.5495 217.305 36.4391 217.305 37.9984V42.017H216.447V38.0612C216.447 37.0146 216.237 36.1775 215.076 36.1775C214.596 36.221 214.143 36.4173 213.783 36.7376C213.423 37.0578 213.176 37.4851 213.077 37.9565C212.991 38.2557 212.952 38.5664 212.962 38.8774V41.8705H212.104V38.0612C212.104 37.1088 211.968 36.1775 210.774 36.1775C210.27 36.2179 209.793 36.4216 209.416 36.7578C209.038 37.094 208.78 37.5443 208.681 38.0402C208.622 38.3152 208.593 38.5961 208.598 38.8774V41.8705L207.813 41.9751ZM218.801 41.2112L219.262 40.5937C219.767 41.0831 220.442 41.3571 221.145 41.3577C221.826 41.3577 222.412 41.0228 222.412 40.3112C222.412 38.9298 219.011 39.2647 219.011 37.1717C219.011 36.0414 220.057 35.424 221.166 35.424C221.52 35.4034 221.875 35.4539 222.209 35.5725C222.544 35.6912 222.851 35.8755 223.113 36.1147L222.726 36.7635C222.295 36.3698 221.728 36.1596 221.145 36.1775C220.507 36.1775 219.89 36.4495 219.89 37.1612C219.89 38.553 223.291 38.2077 223.291 40.3007C223.273 40.5613 223.202 40.8155 223.082 41.0476C222.963 41.2797 222.797 41.4849 222.595 41.6506C222.393 41.8162 222.159 41.9388 221.908 42.0108C221.657 42.0829 221.394 42.1028 221.135 42.0693C220.704 42.0802 220.275 42.0043 219.874 41.846C219.474 41.6878 219.109 41.4506 218.801 41.1484V41.2112Z" fill="white"/>
</g>
</mask>
<g mask="url(#mask0_8389_2347)">
<path d="M228.558 27.6484H-4.73047V49.7298H228.558V27.6484Z" fill="#0E153A"/>
</g>
<mask id="mask2_8389_2347" style="mask-type:luminance" maskUnits="userSpaceOnUse" x="18" y="6" width="18" height="18">
<mask id="mask3_8389_2347" style="mask-type:luminance" maskUnits="userSpaceOnUse" x="0" y="0" width="225" height="45">
<path d="M224.286 0H0.332031V45H224.286V0Z" fill="white"/>
</mask>
<g mask="url(#mask3_8389_2347)">
<path d="M29.6334 11.061L22.1822 15.9901C21.937 15.0254 22.008 14.0074 22.3848 13.0862C22.7616 12.1649 23.4243 11.3889 24.2753 10.8726C25.0436 10.3361 25.9545 10.0409 26.8915 10.025C27.9029 10.0427 28.8763 10.4128 29.6439 11.0715L29.6334 11.061ZM32.1555 17.0157C31.6997 18.0353 30.9535 18.8979 30.0101 19.4959C29.1933 20.0586 28.2287 20.368 27.2369 20.3854C26.025 20.3703 24.8661 19.8865 24.0032 19.0354L34.7927 11.8982L33.966 10.6528C33.2245 9.41561 32.1846 8.38416 30.9413 7.65284C29.6981 6.92153 28.2913 6.51371 26.8497 6.4668C25.2164 6.48824 23.6258 6.99057 22.2764 7.91099C21.3178 8.5269 20.4949 9.33204 19.8583 10.2771C19.2216 11.2221 18.7846 12.2872 18.574 13.407C18.3633 14.5268 18.3835 15.6779 18.6333 16.7896C18.883 17.9014 19.3571 18.9505 20.0264 19.8726C20.7936 21.1033 21.858 22.1212 23.1217 22.8326C24.3854 23.544 25.8077 23.926 27.2578 23.9436C28.9253 23.9333 30.5527 23.4309 31.9357 22.4994C33.5489 21.4498 34.7959 19.9248 35.5043 18.1354L32.1241 17.0889L32.1555 17.0157Z" fill="white"/>
</g>
</mask>
<g mask="url(#mask2_8389_2347)">
<path d="M40.7237 1.27734H13.2109V29.2087H40.7237V1.27734Z" fill="#0E153A"/>
</g>
<mask id="mask4_8389_2347" style="mask-type:luminance" maskUnits="userSpaceOnUse" x="0" y="0" width="18" height="24">
<mask id="mask5_8389_2347" style="mask-type:luminance" maskUnits="userSpaceOnUse" x="0" y="0" width="225" height="45">
<path d="M224.286 0H0.332031V45H224.286V0Z" fill="white"/>
</mask>
<g mask="url(#mask5_8389_2347)">
<path d="M4.16227 4.0182H7.41692C8.40317 3.92464 9.39702 4.08309 10.3053 4.47867C10.9462 4.93095 11.4294 5.5725 11.6872 6.31332C11.9451 7.05414 11.9646 7.85707 11.743 8.60953C11.5214 9.36198 11.0699 10.0262 10.4517 10.5091C9.83351 10.9919 9.0797 11.2692 8.29599 11.3019H4.10994V3.97636L4.16227 4.0182ZM12.3878 14.4205C12.2099 14.1066 12.0634 13.8659 11.9483 13.6984C13.1104 13.1041 14.0835 12.1973 14.7582 11.0799C15.4328 9.9626 15.7822 8.67912 15.767 7.37398C15.7518 6.06884 15.3725 4.79385 14.672 3.69254C13.9715 2.59123 12.9774 1.70731 11.8018 1.14029C10.417 0.698724 8.96148 0.521228 7.5111 0.617037H0.332031V23.6403H4.16227V14.724H8.34831L13.0576 23.5985H17.4006L12.3774 14.4205H12.3878Z" fill="white"/>
</g>
</mask>
<g mask="url(#mask4_8389_2347)">
<path d="M22.6457 -4.63672H-4.89844V28.8307H22.6457V-4.63672Z" fill="#0E153A"/>
</g>
<mask id="mask6_8389_2347" style="mask-type:luminance" maskUnits="userSpaceOnUse" x="37" y="6" width="14" height="18">
<mask id="mask7_8389_2347" style="mask-type:luminance" maskUnits="userSpaceOnUse" x="0" y="0" width="225" height="45">
<path d="M224.286 0H0.332031V45H224.286V0Z" fill="white"/>
</mask>
<g mask="url(#mask7_8389_2347)">
<path d="M45.1135 13.6563C43.5228 13.0284 42.1414 12.4842 42.1414 11.5005C42.1414 10.3179 43.3135 9.88882 44.4124 9.88882C45.7665 9.8631 47.0836 10.3319 48.117 11.2074L48.4519 11.5423L50.0217 8.6016L49.8542 8.41324C48.3747 7.09507 46.4327 6.41763 44.4542 6.52953C40.7914 6.52953 38.3217 8.49696 38.3217 11.4272C38.3217 14.64 41.1996 15.8016 43.5542 16.733C45.1763 17.3819 46.5682 17.947 46.5682 18.9725C46.5682 19.9981 45.4066 20.6156 44.2659 20.6156C42.6548 20.5814 41.1126 19.9556 39.9333 18.8574L39.6298 18.5539L37.7461 21.3167L37.9345 21.526C39.624 23.1362 41.8799 24.016 44.2135 23.9749C47.824 23.9749 50.3461 21.8818 50.3461 18.983C50.3461 15.7284 47.4368 14.5772 45.1135 13.6563Z" fill="white"/>
</g>
</mask>
<g mask="url(#mask6_8389_2347)">
<path d="M55.5874 1.29688H32.4805V29.2073H55.5874V1.29688Z" fill="#0E153A"/>
</g>
<mask id="mask8_8389_2347" style="mask-type:luminance" maskUnits="userSpaceOnUse" x="53" y="6" width="17" height="24">
<mask id="mask9_8389_2347" style="mask-type:luminance" maskUnits="userSpaceOnUse" x="0" y="0" width="225" height="45">
<path d="M224.286 0H0.332031V45H224.286V0Z" fill="white"/>
</mask>
<g mask="url(#mask9_8389_2347)">
<path d="M61.5641 9.92069C64.0548 9.92069 65.7502 12.0765 65.7502 15.2893C65.7502 18.5021 64.0339 20.6579 61.4909 20.6579C58.7595 20.6579 57.3048 17.9788 57.3048 15.3207C57.3048 10.3079 60.5699 9.92069 61.5641 9.92069ZM62.1606 6.53001C61.2207 6.48646 60.2829 6.65153 59.4144 7.01341C58.5459 7.37528 57.7683 7.925 57.1374 8.62303V6.87534H53.6211V29.8986H57.3885V22.3742C57.3885 22.2556 57.3885 22.1439 57.3885 22.0393C57.9679 22.6634 58.6734 23.1571 59.4584 23.4873C60.2433 23.8175 61.0896 23.9767 61.9409 23.9544C66.4095 23.9544 69.5281 20.3649 69.5281 15.237C69.5281 10.1091 66.5664 6.51953 62.2025 6.51953L62.1606 6.53001Z" fill="white"/>
</g>
</mask>
<g mask="url(#mask8_8389_2347)">
<path d="M74.7601 1.29688H48.3984V35.1411H74.7601V1.29688Z" fill="#0E153A"/>
</g>
<mask id="mask10_8389_2347" style="mask-type:luminance" maskUnits="userSpaceOnUse" x="72" y="6" width="18" height="18">
<mask id="mask11_8389_2347" style="mask-type:luminance" maskUnits="userSpaceOnUse" x="0" y="0" width="225" height="45">
<path d="M224.286 0H0.332031V45H224.286V0Z" fill="white"/>
</mask>
<g mask="url(#mask11_8389_2347)">
<path d="M80.7684 20.6156C80.074 20.6048 79.3887 20.4559 78.7524 20.1776C78.1161 19.8993 77.5416 19.4971 77.0624 18.9945C76.5832 18.4919 76.2088 17.8989 75.961 17.2501C75.7133 16.6013 75.5972 15.9097 75.6195 15.2156C75.6687 14.2094 76.0119 13.2397 76.6067 12.4267C77.2015 11.6136 78.0218 10.9929 78.9658 10.6415C79.9099 10.29 80.9364 10.2232 81.918 10.4493C82.8997 10.6754 83.7935 11.1845 84.4886 11.9136C85.1838 12.6427 85.6499 13.5597 85.829 14.5511C86.0082 15.5424 85.8926 16.5645 85.4966 17.4908C85.1006 18.417 84.4415 19.2068 83.6011 19.7622C82.7607 20.3177 81.7758 20.6144 80.7684 20.6156ZM80.7684 6.52953C79.0514 6.57692 77.3866 7.12985 75.9825 8.11907C74.5783 9.10829 73.4973 10.4898 72.8748 12.0906C72.2522 13.6914 72.1158 15.4403 72.4827 17.1183C72.8495 18.7963 73.7033 20.3287 74.9371 21.5236C76.171 22.7186 77.7299 23.5229 79.4188 23.8359C81.1076 24.1489 82.8513 23.9566 84.4313 23.2831C86.0114 22.6096 87.3576 21.4849 88.3014 20.0499C89.2452 18.6148 89.7446 16.9332 89.737 15.2156C89.7435 14.0491 89.5137 12.8933 89.0617 11.8179C88.6097 10.7425 87.9447 9.76977 87.1067 8.95821C86.2688 8.14666 85.2752 7.51311 84.1859 7.09571C83.0966 6.67832 81.9341 6.48574 80.7684 6.52953Z" fill="white"/>
</g>
</mask>
<g mask="url(#mask10_8389_2347)">
<path d="M94.9714 1.29688H66.5586V29.2073H94.9714V1.29688Z" fill="#0E153A"/>
</g>
<mask id="mask12_8389_2347" style="mask-type:luminance" maskUnits="userSpaceOnUse" x="93" y="6" width="16" height="18">
<mask id="mask13_8389_2347" style="mask-type:luminance" maskUnits="userSpaceOnUse" x="0" y="0" width="225" height="45">
<path d="M224.286 0H0.332031V45H224.286V0Z" fill="white"/>
</mask>
<g mask="url(#mask13_8389_2347)">
<path d="M102.367 6.53028C101.275 6.51186 100.194 6.7515 99.2122 7.22977C98.2302 7.70804 97.3751 8.41138 96.7162 9.28258V6.87562H93.043V23.6198H96.8104V15.7814C96.7868 15.0757 96.8679 14.3704 97.0511 13.6884C97.3187 12.6401 97.928 11.7108 98.7828 11.0475C99.6375 10.3842 100.689 10.0246 101.771 10.0256C104 10.0256 104.45 11.4907 104.45 13.6884V23.6198H108.217V13.0082C108.217 8.707 106.25 6.53028 102.367 6.53028Z" fill="white"/>
</g>
</mask>
<g mask="url(#mask12_8389_2347)">
<path d="M113.442 1.29688H87.8125V28.8201H113.442V1.29688Z" fill="#0E153A"/>
</g>
<mask id="mask14_8389_2347" style="mask-type:luminance" maskUnits="userSpaceOnUse" x="111" y="0" width="17" height="24">
<mask id="mask15_8389_2347" style="mask-type:luminance" maskUnits="userSpaceOnUse" x="0" y="0" width="225" height="45">
<path d="M224.286 0H0.332031V45H224.286V0Z" fill="white"/>
</mask>
<g mask="url(#mask15_8389_2347)">
<path d="M123.673 15.2488C123.673 19.2256 121.475 20.6488 119.413 20.6488C116.923 20.6488 115.227 18.493 115.227 15.2802C115.227 12.0674 116.944 9.9116 119.487 9.9116C122.354 9.9116 123.673 12.6744 123.673 15.2488ZM123.578 0.597656V8.34184C122.987 7.73499 122.273 7.26001 121.485 6.94801C120.697 6.63601 119.852 6.49405 119.005 6.53139C114.474 6.53139 111.418 10.0372 111.418 15.2488C111.418 20.4604 114.39 23.9662 118.806 23.9662C119.741 24.0037 120.671 23.826 121.526 23.4468C122.38 23.0676 123.136 22.4969 123.735 21.779V23.6209H127.346V0.597656H123.578Z" fill="white"/>
</g>
</mask>
<g mask="url(#mask14_8389_2347)">
<path d="M132.581 -4.63672H106.188V29.2075H132.581V-4.63672Z" fill="#0E153A"/>
</g>
<mask id="mask16_8389_2347" style="mask-type:luminance" maskUnits="userSpaceOnUse" x="131" y="6" width="16" height="18">
<mask id="mask17_8389_2347" style="mask-type:luminance" maskUnits="userSpaceOnUse" x="0" y="0" width="225" height="45">
<path d="M224.286 0H0.332031V45H224.286V0Z" fill="white"/>
</mask>
<g mask="url(#mask17_8389_2347)">
<path d="M142.849 6.875V14.7134C142.849 17.5389 141.195 20.3959 138.024 20.3959C135.816 20.3959 135.377 19.0041 135.377 16.7645V6.875H131.609V17.4552C131.609 21.7564 133.566 23.9331 137.428 23.9331C138.497 23.9388 139.552 23.696 140.511 23.2238C141.47 22.7516 142.306 22.0629 142.954 21.2122V23.6192H146.627V6.875H142.859" fill="white"/>
</g>
</mask>
<g mask="url(#mask16_8389_2347)">
<path d="M151.847 1.68555H126.375V29.2088H151.847V1.68555Z" fill="#0E153A"/>
</g>
<mask id="mask18_8389_2347" style="mask-type:luminance" maskUnits="userSpaceOnUse" x="149" y="6" width="14" height="18">
<mask id="mask19_8389_2347" style="mask-type:luminance" maskUnits="userSpaceOnUse" x="0" y="0" width="224" height="45">
<path d="M223.953 0H0V45H223.953V0Z" fill="white"/>
</mask>
<g mask="url(#mask19_8389_2347)">
<path d="M157.102 13.6563C155.511 13.0284 154.13 12.4842 154.13 11.5005C154.13 10.3179 155.302 9.88882 156.401 9.88882C157.755 9.8631 159.072 10.3319 160.105 11.2074L160.44 11.5423L162.01 8.6016L161.842 8.41324C160.363 7.09507 158.421 6.41763 156.443 6.52953C152.78 6.52953 150.31 8.49696 150.31 11.4272C150.31 14.64 153.188 15.8016 155.543 16.733C157.165 17.3819 158.556 17.947 158.556 18.9725C158.556 19.9981 157.395 20.6156 156.254 20.6156C154.643 20.5814 153.101 19.9556 151.922 18.8574L151.618 18.5539L149.734 21.3167L149.923 21.526C151.612 23.1362 153.868 24.016 156.202 23.9749C159.812 23.9749 162.334 21.8818 162.334 18.983C162.334 15.7284 159.425 14.5772 157.102 13.6563Z" fill="white"/>
</g>
</mask>
<g mask="url(#mask18_8389_2347)">
<path d="M167.576 1.29688H144.469V29.2073H167.576V1.29688Z" fill="#0E153A"/>
</g>
</svg>
