<svg xmlns="http://www.w3.org/2000/svg" width="257" height="45" fill="none" xmlns:v="https://vecta.io/nano"><path d="M22.181 23.779c-3.683-.881-8.247-1.922-8.247-6.726 0-4.164 3.523-6.806 8.888-6.806 4.404 0 9.048 2.082 9.849 7.527l-4.164.56c-.08-1.441-.16-2.562-1.681-3.683-1.521-1.201-3.283-1.361-4.404-1.361-3.043 0-4.564 1.842-4.564 3.363 0 2.162 2.482 2.883 5.525 3.603l2.162.561c2.723.641 7.687 1.842 7.687 6.646 0 3.763-3.283 7.287-9.689 7.287-2.562 0-5.285-.561-7.126-1.842-.721-.561-2.963-2.402-3.443-6.246l4.404-.721c-.08 1.041-.08 2.963 1.681 4.484 1.361 1.201 3.123 1.361 4.644 1.361 3.443 0 5.445-1.361 5.445-3.843 0-2.642-2.002-3.123-4.804-3.683l-2.162-.48zm47.162 3.363c2.722.561 4.644.961 4.644 3.523 0 2.402-1.922 3.683-5.285 3.683-1.521 0-3.203-.16-4.484-1.281-1.681-1.441-1.681-3.363-1.681-4.324l-4.244.64c.4 3.763 2.642 5.525 3.283 6.085 1.842 1.281 4.404 1.762 6.886 1.762 6.165 0 9.368-3.443 9.368-7.046 0-4.724-4.804-5.845-7.447-6.406l-2.162-.56c-2.802-.721-5.205-1.361-5.205-3.523 0-1.521 1.441-3.283 4.404-3.283 1.121 0 2.803.16 4.324 1.361 1.441 1.121 1.601 2.242 1.601 3.603l4.084-.561c-.721-5.285-5.285-7.286-9.609-7.286-5.205 0-8.648 2.562-8.648 6.646 0 4.644 4.404 5.605 8.007 6.486l2.162.48zm28.265.961c-.24 1.762-.881 6.245-6.326 6.245-2.322 0-4.244-.961-5.525-2.963-.961-1.521-1.441-3.603-1.441-6.005 0-2.002.32-9.048 6.806-9.048 5.044 0 5.845 4.244 6.005 5.125l4.163-.4c-1.441-6.245-6.726-7.527-10.329-7.527-7.447 0-10.81 5.765-10.81 12.091 0 5.525 2.963 11.61 11.13 11.61 4.164 0 7.286-1.521 9.128-4.964.881-1.682 1.121-2.883 1.282-3.763l-4.084-.4zm6.406 8.408h3.843v-10.81c0-1.681 0-2.802.32-4.084.801-3.443 3.363-4.804 5.765-4.804 1.442 0 2.963.48 3.924 1.922.881 1.361.881 3.123.881 6.005v11.771h3.843V23.539c0-2.242 0-3.683-.4-5.125-.641-2.162-2.643-4.964-7.527-4.964-2.162 0-4.404.4-6.806 2.963V3.041h-3.843v33.47zm39.795-14.253c.16.641.32 1.681.24 3.123-.08 2.242-.56 8.808-6.806 8.808-4.884 0-6.806-3.923-6.806-8.568 0-5.125 2.002-9.048 7.126-9.048 2.483 0 5.365 1.201 6.246 5.685zm-6.566 14.973c6.806 0 10.81-5.044 10.89-11.85.08-6.085-3.363-11.851-10.73-11.851-8.647 0-11.13 7.046-11.13 12.011 0 5.845 3.283 11.69 10.97 11.69zm31.068-14.973c.16.641.32 1.681.24 3.123-.08 2.242-.48 8.808-6.806 8.808-4.884 0-6.806-3.923-6.806-8.568 0-5.125 2.002-9.048 7.126-9.048 2.482 0 5.365 1.201 6.246 5.685zm-6.566 14.973c6.806 0 10.89-5.044 10.89-11.85.08-6.085-3.363-11.851-10.73-11.851-8.648 0-11.13 7.046-11.13 12.011 0 5.845 3.283 11.69 10.97 11.69zm14.733-.721h3.683V3.041h-3.683v33.47z" fill="#0e153a"/><path d="M23.063 3.683c-10.329 0-18.737 8.488-18.737 18.817s8.407 18.817 18.817 18.817S41.879 32.829 41.879 22.5 33.472 3.683 23.063 3.683zm0 41.317C10.652 45 .563 34.911.563 22.5S10.652 0 23.063 0s22.58 10.089 22.58 22.5S35.474 45 23.063 45zm202.661-17.776h-6.406v-2.562h10.489v11.931h-2.642V33.87c-1.922 2.242-4.644 3.203-8.007 3.203-8.167 0-11.13-6.085-11.13-11.61 0-6.326 3.363-12.091 10.81-12.091 3.603 0 8.887 1.281 10.329 7.527l-4.164.4c-.16-.881-.961-5.125-6.005-5.125-6.486 0-6.806 7.046-6.806 9.048 0 2.402.48 4.484 1.441 6.005 1.281 2.002 3.203 2.963 5.525 2.963 5.445 0 6.085-4.484 6.325-6.246l.241-.721zm-24.262-4.964c-.881-4.404-3.763-5.685-6.326-5.685-5.044 0-7.126 3.924-7.126 9.048 0 4.724 1.922 8.568 6.806 8.568 6.326 0 6.806-6.566 6.806-8.808.16-1.441 0-2.482-.16-3.123zm-6.486 14.973c-7.687 0-10.969-5.765-10.969-11.69 0-4.964 2.482-12.011 11.129-12.011 7.367 0 10.81 5.765 10.73 11.851-.08 6.726-4.084 11.851-10.89 11.851zm55.089-23.301l-8.167 12.251v10.329h-.56-2.483-.56V26.183l-8.007-12.251h.56 3.043.56l5.685 9.128 5.766-9.128h.56 3.043.56zm3.844 2.002h.24c.32 0 .56-.08.56-.32s-.16-.4-.56-.4h-.32v.721h.08zm0 1.441h-.561v-2.482c.24 0 .561-.08.961-.08.48 0 .641.08.801.16s.24.32.24.56c0 .32-.24.48-.48.561.24.08.32.24.4.561.08.4.16.48.16.56h-.56c-.08-.08-.081-.32-.161-.56s-.16-.4-.48-.4h-.24v1.121h-.08zm-1.522-1.281c0 1.121.801 1.922 1.922 1.922 1.041 0 1.842-.881 1.842-1.922 0-1.121-.801-2.002-1.922-2.002-1.041 0-1.842.881-1.842 2.002zm4.404 0c0 1.361-1.121 2.482-2.482 2.482s-2.482-1.121-2.482-2.482 1.121-2.482 2.562-2.482c1.281 0 2.402 1.121 2.402 2.482z" fill="#3d5af1"/></svg>