<svg xmlns="http://www.w3.org/2000/svg" xmlns:xlink="http://www.w3.org/1999/xlink" width="193" height="45" fill="none" xmlns:v="https://vecta.io/nano"><g fill="#0e153a"><path d="M28.93.934c-.507 3.113-3.204 5.486-6.459 5.486S16.519 4.047 16.012.934"/><path d="M22.471 6.429c3.255 0 5.952-2.373 6.459-5.486C26.882.335 24.722 0 22.471 0s-4.411.335-6.459.943c.507 3.113 3.204 5.486 6.459 5.486zm0 32.093c-3.255 0-5.952 2.373-6.459 5.486 2.048.608 4.208.943 6.459.943s4.411-.335 6.459-.943c-.507-3.113-3.204-5.486-6.459-5.486zM11.122 11.124a6.54 6.54 0 0 0 .679-8.446 22.56 22.56 0 0 0-9.126 9.136c2.555 1.845 6.145 1.622 8.447-.679v-.01zM33.82 33.816a6.54 6.54 0 0 0-.679 8.447 22.65 22.65 0 0 0 9.136-9.136c-2.555-1.845-6.145-1.622-8.446.679l-.01.01zM6.429 22.469c0-3.255-2.383-5.952-5.486-6.459a22.61 22.61 0 0 0 0 12.918c3.113-.507 5.486-3.204 5.486-6.459zm37.576-6.459c-3.113.507-5.486 3.204-5.486 6.459s2.373 5.952 5.486 6.459a22.61 22.61 0 0 0 0-12.918zM11.122 33.816a6.54 6.54 0 0 0-8.447-.679 22.6 22.6 0 0 0 9.126 9.126c1.845-2.555 1.622-6.145-.679-8.446zm22.696-22.691a6.54 6.54 0 0 0 8.447.679 22.65 22.65 0 0 0-9.136-9.136 6.54 6.54 0 0 0 .679 8.447l.01.01zm-9.282-.72c0-1.146-.923-2.069-2.068-2.069s-2.069.923-2.069 2.069.923 2.069 2.069 2.069 2.069-.923 2.069-2.068zm0 24.234c0-1.146-.923-2.068-2.068-2.068s-2.069.923-2.069 2.069.923 2.069 2.069 2.069 2.069-.923 2.069-2.069zm-9.165-22.146a2.072 2.072 0 1 0-2.93 2.93 2.072 2.072 0 1 0 2.93-2.93zM32.504 29.63a2.072 2.072 0 1 0-2.93 2.93 2.072 2.072 0 1 0 2.93-2.93z"/><use xlink:href="#B"/><use xlink:href="#B" x="24.234"/><path d="M12.44 29.63a2.072 2.072 0 1 0 2.93 2.93 2.072 2.072 0 1 0-2.93-2.93zm17.133-17.137a2.072 2.072 0 1 0 2.93 2.93 2.072 2.072 0 1 0-2.93-2.93zm40.916 20.342c-5.05 0-10.008-3.082-10.008-11.458S65.439 9.959 70.489 9.959c3.103 0 5.273.882 7.392 3.123l-3.103 3.001c-1.42-1.541-2.525-2.119-4.299-2.119s-3.184.71-4.157 1.987c-.973 1.237-1.328 2.819-1.328 5.425s.355 4.228 1.328 5.465c.973 1.278 2.434 1.987 4.157 1.987s2.88-.568 4.299-2.119l3.103 2.951c-2.129 2.251-4.299 3.174-7.392 3.174zm24.699-.264v-2.028c-1.643 1.632-3.184 2.292-5.972 2.292s-4.644-.659-6.023-2.028c-1.146-1.186-1.774-2.91-1.774-4.806 0-3.742 2.616-6.429 7.747-6.429h5.932V17.99c0-2.819-1.42-4.188-4.918-4.188-2.484 0-3.671.578-4.918 2.16l-2.971-2.778c2.129-2.464 4.34-3.214 8.061-3.214 6.155 0 9.247 2.596 9.247 7.666v14.936h-4.431.02zm-.081-9.876h-5.273c-2.657 0-4.026 1.186-4.026 3.214s1.288 3.174 4.117 3.174c1.724 0 3.012-.132 4.208-1.278.669-.659.974-1.724.974-3.306v-1.805zm25.147 9.876V18.953c0-3.478-1.997-4.979-4.512-4.979s-4.644 1.541-4.644 4.979v13.618h-4.512V10.223h4.431v2.251c1.551-1.673 3.721-2.515 5.972-2.515s4.208.75 5.537 2.028c1.724 1.673 2.261 3.792 2.261 6.297v14.277h-4.512l-.021.01zm20.146 0h-3.67l-8.234-22.338h4.786l5.313 15.727 5.273-15.727h4.786l-8.233 22.338h-.021zm24.257 0v-2.028c-1.643 1.632-3.184 2.292-5.973 2.292s-4.644-.659-6.023-2.028c-1.146-1.186-1.774-2.91-1.774-4.806 0-3.742 2.616-6.429 7.747-6.429h5.931V17.99c0-2.819-1.419-4.188-4.917-4.188-2.485 0-3.671.578-4.918 2.16l-2.971-2.778c2.129-2.464 4.34-3.214 8.061-3.214 6.155 0 9.247 2.596 9.247 7.666v14.936h-4.431.021zm-.081-9.876h-5.273c-2.657 0-4.026 1.186-4.026 3.214s1.288 3.174 4.117 3.174c1.724 0 3.012-.132 4.208-1.278.669-.659.974-1.724.974-3.306v-1.805zm18.725 10.14c-3.67 0-6.773-.619-9.43-3.214l2.971-2.951c1.815 1.856 4.249 2.332 6.459 2.332 2.748 0 4.918-.973 4.918-3.082 0-1.501-.842-2.464-3.012-2.646l-3.589-.304c-4.208-.355-6.642-2.251-6.642-6.175 0-4.36 3.762-6.834 8.457-6.834 3.366 0 6.246.71 8.325 2.515l-2.839 2.87c-1.42-1.186-3.407-1.633-5.537-1.633-2.697 0-4.076 1.186-4.076 2.87 0 1.318.71 2.332 3.103 2.555l3.539.304c4.208.355 6.682 2.332 6.682 6.297 0 4.675-3.985 7.098-9.339 7.098h.01zM64.567 44.949h-2.231v-5.496h2.15c1.024 0 1.663.578 1.663 1.511 0 .588-.375 1.014-.74 1.166a1.31 1.31 0 0 1 .832 1.278c0 1.014-.69 1.551-1.663 1.551l-.01-.01zm-.162-4.745h-1.237v1.572h1.237c.537 0 .902-.274.902-.791s-.365-.791-.902-.791v.01zm.081 2.322h-1.318v1.673h1.318c.578 0 .902-.355.902-.842s-.324-.831-.902-.831zm5.798.162v2.261h-.842v-2.261l-1.653-3.235h.912l1.156 2.413 1.156-2.413h.913l-1.653 3.235h.01zm6.286 2.261v-5.496h.842v5.496h-.842zm6.675 0l-2.555-3.863v3.863h-.842v-5.496h.771l2.555 3.863v-3.863h.842v5.496h-.771zm4.681.05c-.831 0-1.43-.193-1.957-.73l.558-.548c.406.406.842.527 1.41.527.72 0 1.136-.304 1.136-.842 0-.243-.071-.436-.213-.568s-.284-.182-.608-.233l-.649-.091c-.446-.061-.811-.213-1.044-.436-.274-.253-.406-.598-.406-1.055 0-.953.7-1.612 1.845-1.612.73 0 1.237.182 1.714.629l-.537.527c-.345-.325-.74-.426-1.207-.426-.649 0-1.004.375-1.004.852 0 .203.061.375.213.507.142.122.365.213.618.253l.629.091c.507.081.801.203 1.034.406.304.264.446.659.446 1.126 0 1.014-.832 1.612-1.987 1.612l.01.01zm5.984-4.795v4.745h-.842v-4.745h-1.521v-.75h3.873v.75h-1.521.01zm6.533 4.745l-1.166-2.312h-1.044v2.312h-.842v-5.496h2.139c1.045 0 1.714.669 1.714 1.602 0 .791-.477 1.288-1.105 1.46l1.267 2.434h-.973.01zm-.964-4.745h-1.237v1.724h1.237c.558 0 .933-.314.933-.852s-.375-.862-.933-.862v-.01z"/><use xlink:href="#C"/><path d="M111.507 45c-.578 0-1.075-.213-1.45-.588-.548-.537-.537-1.146-.537-2.211s0-1.663.537-2.21c.375-.375.872-.588 1.45-.588 1.014 0 1.774.598 1.967 1.693h-.852c-.131-.558-.507-.943-1.115-.943-.325 0-.619.122-.811.335-.274.294-.335.608-.335 1.714s.061 1.42.335 1.714c.192.213.486.335.811.335.608 0 .994-.385 1.125-.943h.842c-.182 1.095-.973 1.693-1.967 1.693zm5.957-4.796v4.745h-.841v-4.745h-1.521v-.75h3.873v.75h-1.521.01z"/><use xlink:href="#C" x="17.461"/><path d="M130.244 44.949l-1.167-2.312h-1.044v2.312h-.842v-5.496h2.14c1.044 0 1.714.669 1.714 1.602 0 .791-.477 1.288-1.106 1.46l1.268 2.434h-.974.011zm-.974-4.745h-1.237v1.724h1.237c.558 0 .933-.314.933-.852s-.375-.862-.933-.862v-.01zm4.003 4.745v-5.496h3.529v.75h-2.697v1.602h2.292v.74h-2.292v1.653h2.697v.75h-3.529z"/></g><defs ><path id="B" d="M10.35 20.451c-1.146 0-2.069.923-2.069 2.069s.923 2.069 2.069 2.069 2.069-.923 2.069-2.068-.923-2.068-2.068-2.068z"/><path id="C" d="M105.38 44.999c-1.126 0-1.978-.76-1.978-1.896v-3.64h.842v3.61c0 .73.446 1.186 1.136 1.186s1.145-.456 1.145-1.186v-3.61h.842v3.64c0 1.136-.862 1.896-1.987 1.896z"/></defs></svg>