<svg xmlns="http://www.w3.org/2000/svg" width="97" height="45" fill="#0e153a" xmlns:v="https://vecta.io/nano"><path d="M23.842 17.196c0-5.182-1.586-8.598-7.927-8.598H9.147v28.536h6.768c6.341 0 7.927-3.413 7.927-8.596V17.196zM16.526 45H4.94C2.623 45 .793 43.11.793 40.793V4.758C.793 2.441 2.623.551 4.94.551h11.586c13.537 0 15.671 9.817 15.671 16.523v11.465c0 6.766-2.134 16.462-15.67 16.462zm43.231 0H39.819c-2.44 0-4.026-1.646-4.026-4.024 0-6.708 2.988-10.792 6.891-14.208 5.61-4.878 12.682-7.744 12.682-13.476 0-2.805-1.586-5.67-5.731-5.67-2.44 0-4.086.61-5.426 1.402C42.44 10 41.586 11.038 40 11.038c-2.071 0-3.962-1.709-3.962-3.963 0-1.098.304-2.196 1.463-3.111C40.794 1.342 45.001 0 49.94 0c10.061 0 13.841 7.256 13.841 13.293 0 12.805-15.427 14.757-18.84 23.72h14.816c2.257 0 4.024 1.767 4.024 3.963A3.98 3.98 0 0 1 59.757 45zm32.44 0H72.623c-2.194 0-3.963-1.769-3.963-4.024V4.207C68.66 1.892 70.49 0 72.807 0c2.378 0 4.207 1.892 4.207 4.207v32.806h15.183c2.194 0 4.024 1.767 4.024 3.963 0 2.255-1.83 4.024-4.024 4.024"/></svg>