<?xml version="1.0" encoding="UTF-8" standalone="no"?><!-- Generator: Gravit.io --><svg xmlns="http://www.w3.org/2000/svg" xmlns:xlink="http://www.w3.org/1999/xlink" style="isolation:isolate" viewBox="0 0 620 200" width="620pt" height="200pt"><defs><clipPath id="_clipPath_fYcslfsA9N3IjZJxFa6R9Cqci4AFH9Ts"><rect width="620" height="200"/></clipPath></defs><g clip-path="url(#_clipPath_fYcslfsA9N3IjZJxFa6R9Cqci4AFH9Ts)"><rect width="620" height="200" style="fill:rgb(0,0,0)" fill-opacity="0"/><linearGradient id="_lgradient_0" x1="0" y1="0.5" x2="1" y2="0.5" gradientTransform="matrix(608,0,0,117.783,6,39.778)" gradientUnits="userSpaceOnUse"><stop offset="0%" stop-opacity="1" style="stop-color:rgb(16,107,255)"/><stop offset="100%" stop-opacity="1" style="stop-color:rgb(153,0,255)"/></linearGradient><path d=" M 6 52.153 L 91.579 52.153 L 91.579 71.982 L 60.419 71.982 L 60.419 155.474 L 37.16 155.474 L 37.16 71.982 L 6 71.982 L 6 52.153 Z  M 84.764 116.859 L 84.764 116.859 L 84.764 116.859 Q 84.764 106.423 87.969 98.595 L 87.969 98.595 L 87.969 98.595 Q 91.175 90.768 96.393 85.55 L 96.393 85.55 L 96.393 85.55 Q 101.611 80.332 108.395 77.648 L 108.395 77.648 L 108.395 77.648 Q 115.178 74.964 122.335 74.964 L 122.335 74.964 L 122.335 74.964 Q 139.033 74.964 148.724 85.177 L 148.724 85.177 L 148.724 85.177 Q 158.415 95.39 158.415 115.219 L 158.415 115.219 L 158.415 115.219 Q 158.415 117.157 158.266 119.468 L 158.266 119.468 L 158.266 119.468 Q 158.117 121.779 157.968 123.568 L 157.968 123.568 L 107.575 123.568 L 107.575 123.568 Q 108.32 130.427 113.986 134.452 L 113.986 134.452 L 113.986 134.452 Q 119.651 138.478 129.193 138.478 L 129.193 138.478 L 129.193 138.478 Q 135.306 138.478 141.195 137.36 L 141.195 137.36 L 141.195 137.36 Q 147.084 136.241 150.812 134.601 L 150.812 134.601 L 153.793 152.642 L 153.793 152.642 Q 152.004 153.536 149.022 154.431 L 149.022 154.431 L 149.022 154.431 Q 146.041 155.325 142.388 155.996 L 142.388 155.996 L 142.388 155.996 Q 138.735 156.667 134.56 157.114 L 134.56 157.114 L 134.56 157.114 Q 130.386 157.562 126.211 157.562 L 126.211 157.562 L 126.211 157.562 Q 115.626 157.562 107.798 154.431 L 107.798 154.431 L 107.798 154.431 Q 99.971 151.3 94.827 145.858 L 94.827 145.858 L 94.827 145.858 Q 89.684 140.416 87.224 132.961 L 87.224 132.961 L 87.224 132.961 Q 84.764 125.507 84.764 116.859 Z  M 107.575 108.361 L 136.946 108.361 L 136.946 108.361 Q 136.797 105.528 135.977 102.845 L 135.977 102.845 L 135.977 102.845 Q 135.157 100.161 133.442 98.074 L 133.442 98.074 L 133.442 98.074 Q 131.728 95.986 129.119 94.644 L 129.119 94.644 L 129.119 94.644 Q 126.509 93.303 122.633 93.303 L 122.633 93.303 L 122.633 93.303 Q 118.906 93.303 116.222 94.57 L 116.222 94.57 L 116.222 94.57 Q 113.538 95.837 111.749 97.925 L 111.749 97.925 L 111.749 97.925 Q 109.96 100.012 108.991 102.77 L 108.991 102.77 L 108.991 102.77 Q 108.022 105.528 107.575 108.361 L 107.575 108.361 Z  M 192.749 139.521 L 192.749 139.521 L 192.749 139.521 Q 198.862 139.521 201.397 138.329 L 201.397 138.329 L 201.397 138.329 Q 203.931 137.136 203.931 133.707 L 203.931 133.707 L 203.931 133.707 Q 203.931 131.023 200.651 129.01 L 200.651 129.01 L 200.651 129.01 Q 197.371 126.998 190.662 124.463 L 190.662 124.463 L 190.662 124.463 Q 185.444 122.525 181.195 120.438 L 181.195 120.438 L 181.195 120.438 Q 176.945 118.35 173.964 115.443 L 173.964 115.443 L 173.964 115.443 Q 170.982 112.536 169.342 108.51 L 169.342 108.51 L 169.342 108.51 Q 167.702 104.485 167.702 98.819 L 167.702 98.819 L 167.702 98.819 Q 167.702 87.786 175.902 81.375 L 175.902 81.375 L 175.902 81.375 Q 184.102 74.964 198.415 74.964 L 198.415 74.964 L 198.415 74.964 Q 205.571 74.964 212.131 76.232 L 212.131 76.232 L 212.131 76.232 Q 218.691 77.499 222.568 78.99 L 222.568 78.99 L 218.691 96.285 L 218.691 96.285 Q 214.815 94.943 210.268 93.899 L 210.268 93.899 L 210.268 93.899 Q 205.72 92.855 200.055 92.855 L 200.055 92.855 L 200.055 92.855 Q 189.618 92.855 189.618 98.67 L 189.618 98.67 L 189.618 98.67 Q 189.618 100.012 190.066 101.055 L 190.066 101.055 L 190.066 101.055 Q 190.513 102.099 191.855 103.068 L 191.855 103.068 L 191.855 103.068 Q 193.197 104.037 195.507 105.149 L 195.507 105.149 L 195.507 105.149 Q 197.818 106.261 201.397 107.595 L 201.397 107.595 L 201.397 107.595 Q 208.702 110.263 213.473 112.857 L 213.473 112.857 L 213.473 112.857 Q 218.244 115.451 221.002 118.512 L 221.002 118.512 L 221.002 118.512 Q 223.761 121.573 224.879 125.307 L 224.879 125.307 L 224.879 125.307 Q 225.997 129.04 225.997 133.968 L 225.997 133.968 L 225.997 133.968 Q 225.997 145.615 217.275 151.588 L 217.275 151.588 L 217.275 151.588 Q 208.553 157.562 192.6 157.562 L 192.6 157.562 L 192.6 157.562 Q 182.164 157.562 175.231 155.773 L 175.231 155.773 L 175.231 155.773 Q 168.298 153.983 165.614 152.791 L 165.614 152.791 L 169.342 134.75 L 169.342 134.75 Q 175.007 136.987 180.971 138.254 L 180.971 138.254 L 180.971 138.254 Q 186.935 139.521 192.749 139.521 Z  M 236.476 123.419 L 236.476 57.52 L 258.691 53.942 L 258.691 77.052 L 285.378 77.052 L 285.378 95.539 L 258.691 95.539 L 258.691 123.121 L 258.691 123.121 Q 258.691 130.129 261.151 134.303 L 261.151 134.303 L 261.151 134.303 Q 263.611 138.478 271.066 138.478 L 271.066 138.478 L 271.066 138.478 Q 274.644 138.478 278.446 137.807 L 278.446 137.807 L 278.446 137.807 Q 282.247 137.136 285.378 135.943 L 285.378 135.943 L 288.509 153.238 L 288.509 153.238 Q 284.484 154.878 279.564 156.071 L 279.564 156.071 L 279.564 156.071 Q 274.644 157.263 267.487 157.263 L 267.487 157.263 L 267.487 157.263 Q 258.393 157.263 252.429 154.803 L 252.429 154.803 L 252.429 154.803 Q 246.465 152.343 242.887 147.945 L 242.887 147.945 L 242.887 147.945 Q 239.309 143.547 237.892 137.285 L 237.892 137.285 L 237.892 137.285 Q 236.476 131.023 236.476 123.419 L 236.476 123.419 Z  M 349.158 63.186 L 368.987 63.186 L 368.987 63.186 Q 370.777 69.299 372.938 76.977 L 372.938 76.977 L 372.938 76.977 Q 375.1 84.655 377.56 92.855 L 377.56 92.855 L 377.56 92.855 Q 380.02 101.055 382.555 109.256 L 382.555 109.256 L 382.555 109.256 Q 385.089 117.456 387.475 124.463 L 387.475 124.463 L 387.475 124.463 Q 389.423 116.859 391.446 107.914 L 391.446 107.914 L 391.446 107.914 Q 393.469 98.968 395.268 89.426 L 395.268 89.426 L 395.268 89.426 Q 397.066 79.884 398.789 70.417 L 398.789 70.417 L 398.789 70.417 Q 400.513 60.95 402.011 52.153 L 402.011 52.153 L 426.165 52.153 L 426.165 52.153 Q 420.973 78.095 414.225 104.783 L 414.225 104.783 L 414.225 104.783 Q 407.476 131.47 399.615 155.474 L 399.615 155.474 L 378.076 155.474 L 378.076 155.474 Q 372.859 141.161 367.941 125.432 L 367.941 125.432 L 367.941 125.432 Q 363.022 109.703 358.253 93.899 L 358.253 93.899 L 358.253 93.899 Q 353.484 109.703 348.715 125.432 L 348.715 125.432 L 348.715 125.432 Q 343.947 141.161 338.731 155.474 L 338.731 155.474 L 317.289 155.474 L 317.289 155.474 Q 309.398 131.47 302.624 104.783 L 302.624 104.783 L 302.624 104.783 Q 295.85 78.095 290.639 52.153 L 290.639 52.153 L 315.836 52.153 L 315.836 52.153 Q 317.334 60.95 319.132 70.417 L 319.132 70.417 L 319.132 70.417 Q 320.93 79.884 322.878 89.426 L 322.878 89.426 L 322.878 89.426 Q 324.826 98.968 326.848 107.914 L 326.848 107.914 L 326.848 107.914 Q 328.871 116.859 330.969 124.463 L 330.969 124.463 L 330.969 124.463 Q 333.652 117.157 336.187 108.957 L 336.187 108.957 L 336.187 108.957 Q 338.722 100.757 341.107 92.557 L 341.107 92.557 L 341.107 92.557 Q 343.493 84.357 345.505 76.753 L 345.505 76.753 L 345.505 76.753 Q 347.518 69.15 349.158 63.186 L 349.158 63.186 Z  M 456.324 155.474 L 434.109 155.474 L 434.109 43.357 L 456.324 39.778 L 456.324 77.35 L 456.324 77.35 Q 458.56 76.604 462.064 75.933 L 462.064 75.933 L 462.064 75.933 Q 465.568 75.262 468.848 75.262 L 468.848 75.262 L 468.848 75.262 Q 478.39 75.262 484.726 77.872 L 484.726 77.872 L 484.726 77.872 Q 491.062 80.481 494.864 85.252 L 494.864 85.252 L 494.864 85.252 Q 498.666 90.023 500.232 96.583 L 500.232 96.583 L 500.232 96.583 Q 501.797 103.143 501.797 111.194 L 501.797 111.194 L 501.797 155.474 L 479.582 155.474 L 479.582 113.877 L 479.582 113.877 Q 479.582 103.143 476.824 98.67 L 476.824 98.67 L 476.824 98.67 Q 474.066 94.197 466.611 94.197 L 466.611 94.197 L 466.611 94.197 Q 463.629 94.197 461.02 94.719 L 461.02 94.719 L 461.02 94.719 Q 458.411 95.241 456.324 95.837 L 456.324 95.837 L 456.324 155.474 Z  M 538.815 77.052 L 538.815 155.474 L 516.6 155.474 L 516.6 77.052 L 538.815 77.052 Z  M 540.902 54.389 L 540.902 54.389 L 540.902 54.389 Q 540.902 60.502 536.951 64.006 L 536.951 64.006 L 536.951 64.006 Q 533 67.51 527.633 67.51 L 527.633 67.51 L 527.633 67.51 Q 522.265 67.51 518.314 64.006 L 518.314 64.006 L 518.314 64.006 Q 514.363 60.502 514.363 54.389 L 514.363 54.389 L 514.363 54.389 Q 514.363 48.277 518.314 44.773 L 518.314 44.773 L 518.314 44.773 Q 522.265 41.269 527.633 41.269 L 527.633 41.269 L 527.633 41.269 Q 533 41.269 536.951 44.773 L 536.951 44.773 L 536.951 44.773 Q 540.902 48.277 540.902 54.389 Z  M 613.255 77.052 L 613.255 91.961 L 613.255 91.961 Q 610.579 94.943 606.045 100.012 L 606.045 100.012 L 606.045 100.012 Q 601.512 105.081 596.309 111.194 L 596.309 111.194 L 596.309 111.194 Q 591.107 117.307 585.83 124.016 L 585.83 124.016 L 585.83 124.016 Q 580.553 130.725 576.243 136.987 L 576.243 136.987 L 614 136.987 L 614 155.474 L 549.145 155.474 L 549.145 142.354 L 549.145 142.354 Q 552.276 136.987 556.674 130.799 L 556.674 130.799 L 556.674 130.799 Q 561.072 124.612 565.918 118.35 L 565.918 118.35 L 565.918 118.35 Q 570.763 112.088 575.534 106.199 L 575.534 106.199 L 575.534 106.199 Q 580.305 100.31 584.331 95.539 L 584.331 95.539 L 550.934 95.539 L 550.934 77.052 L 613.255 77.052 Z " fill="url(#_lgradient_0)"/></g></svg>