<svg xmlns="http://www.w3.org/2000/svg" width="330" height="45" fill="#0e153a" xmlns:v="https://vecta.io/nano"><path d="M70.721 45c-13.109 0-21.326-9.391-21.326-22.5S57.416 0 70.721 0s21.326 9.391 21.326 22.5S83.829 45 70.721 45zm0-37.565c-8.022 0-12.522 6.261-12.522 15.065s4.304 15.065 12.522 15.065S83.242 31.304 83.242 22.5 78.742 7.435 70.72 7.435zm60.843 19.37h-11.935l-.587.587v16.239l-.587.587h-7.434l-.587-.587V1.175l.587-.587h20.739c8.804 0 15.065 4.304 15.065 13.109s-6.457 13.109-15.261 13.109zm0-18.783h-11.935l-.587.587v9.978l.587.587h11.935c3.717 0 6.261-1.174 6.261-5.674s-2.544-5.478-6.261-5.478zM222.542.588h-7.434l-.587.587v15.652l-.783.783h-17.804v8.609h17.804l.783.587v16.826l.587.587h7.434l.587-.587V1.175l-.587-.587zm58.304 43.63h-5.674l-.587-.587-3.13-8.022-1.174-.587h-15.652l-1.174.587-3.131 8.022-.587.587h-5.673l-.587-.587V37.37l14.282-36.196.587-.587h8.022l.587.587 14.282 36.196v6.261l-.391.587zM262.65 11.74h-.586l-5.674 15.065.587.587h10.565l.587-.587-5.479-15.065zm66.33-3.717h-12.522l-.587.783v34.826l-.783.587h-7.434l-.587-.587V8.805l-.587-.783h-12.522l-.587-.587v-6.26l.587-.587h35.022l.587.587v6.261l-.587.587zm-293.09 0H23.368l-.587.783v34.826l-.587.587h-7.63l-.587-.587V8.805l-.587-.783H.868l-.587-.587v-6.26L.868.588H35.89l.587.587v6.261l-.587.587z"/><path d="M195.933 1.175V17.61h-8.217l-.587-.783V1.175l.587-.587h7.63l.587.587zm0 25.044v17.413l-.587.587h-7.63l-.587-.587V26.806l.587-.587h8.217z"/></svg>